<svg xmlns="http://www.w3.org/2000/svg" width="64" height="64" viewBox="0 0 64 64" fill="none">
  <g clip-path="url(#clip0_246_2999)">
    <mask id="mask0_246_2999" style="mask-type:luminance" maskUnits="userSpaceOnUse" x="0" y="0" width="64" height="64">
      <path d="M0 0H64V64H0V0Z" fill="white"/>
    </mask>
    <g mask="url(#mask0_246_2999)">
      <path fill-rule="evenodd" clip-rule="evenodd" d="M46.44 38.3521C45.6453 37.9548 41.7493 36.0401 41.024 35.7734C40.2987 35.5094 39.7707 35.3788 39.24 36.1734C38.712 36.9654 37.1947 38.7494 36.7333 39.2774C36.2693 39.8081 35.808 39.8721 35.016 39.4774C34.224 39.0774 31.6693 38.2428 28.6427 35.5441C26.288 33.4428 24.696 30.8481 24.2347 30.0534C23.7733 29.2614 24.184 28.8321 24.5813 28.4374C24.9387 28.0828 25.3733 27.5121 25.7707 27.0508C26.168 26.5868 26.2987 26.2561 26.5627 25.7254C26.8293 25.1974 26.696 24.7361 26.496 24.3388C26.2987 23.9414 24.7147 20.0401 24.0533 18.4534C23.4107 16.9094 22.7573 17.1201 22.272 17.0934C21.808 17.0721 21.28 17.0668 20.752 17.0668C20.224 17.0668 19.3653 17.2641 18.64 18.0588C17.912 18.8508 15.8667 20.7681 15.8667 24.6694C15.8667 28.5681 18.704 32.3361 19.1013 32.8668C19.4987 33.3948 24.688 41.4001 32.6373 44.8321C34.5307 45.6481 36.0053 46.1361 37.1547 46.4988C39.0533 47.1041 40.7813 47.0188 42.1467 46.8134C43.6667 46.5868 46.8347 44.8961 47.496 43.0454C48.1547 41.1948 48.1547 39.6081 47.9573 39.2774C47.76 38.9468 47.232 38.7494 46.4373 38.3521M31.9787 58.0934H31.968C27.2465 58.0943 22.6117 56.8251 18.5493 54.4188L17.5893 53.8481L7.61067 56.4668L10.2747 46.7388L9.648 45.7414C7.00837 41.5397 5.61145 36.6768 5.61867 31.7148C5.624 17.1814 17.448 5.35744 31.9893 5.35744C35.4525 5.34839 38.883 6.02708 42.0819 7.35413C45.2807 8.68119 48.1842 10.6302 50.624 13.0881C53.078 15.532 55.0232 18.4382 56.3469 21.6386C57.6706 24.839 58.3467 28.2701 58.336 31.7334C58.3307 46.2668 46.5067 58.0934 31.9787 58.0934ZM54.4107 9.30144C51.4728 6.34422 47.9774 3.99937 44.1268 2.40275C40.2762 0.806131 36.1471 -0.0105238 31.9787 0.00010238C14.5013 0.00010238 0.272 14.2268 0.266667 31.7121C0.258568 37.2768 1.71833 42.7451 4.49867 47.5654L0 64.0001L16.8107 59.5895C21.461 62.1231 26.6723 63.4507 31.968 63.4508H31.9813C49.4587 63.4508 63.688 49.2241 63.6933 31.7361C63.7062 27.5688 62.8927 23.4404 61.2998 19.5895C59.7069 15.7387 57.3663 12.2419 54.4133 9.30144" fill="white"/>
    </g>
  </g>
  <defs>
    <clipPath id="clip0_246_2999">
      <rect width="64" height="64" fill="white"/>
    </clipPath>
  </defs>
</svg>