<svg xmlns="http://www.w3.org/2000/svg" width="72" height="72" viewBox="0 0 72 72" fill="none">
  <g clip-path="url(#clip0_160_1088)">
    <path d="M71.3419 25.4081L60.0919 14.1581C59.883 13.9489 59.6348 13.783 59.3617 13.6697C59.0885 13.5565 58.7957 13.4982 58.5001 13.4982C58.2044 13.4982 57.9116 13.5565 57.6384 13.6697C57.3653 13.783 57.1171 13.9489 56.9082 14.1581L47.2501 23.8191L37.5919 14.1581C37.383 13.9489 37.1348 13.783 36.8617 13.6697C36.5885 13.5565 36.2957 13.4982 36.0001 13.4982C35.7044 13.4982 35.4116 13.5565 35.1384 13.6697C34.8653 13.783 34.6171 13.9489 34.4082 14.1581L24.7501 23.8191L15.0919 14.1581C14.883 13.9489 14.6348 13.783 14.3617 13.6697C14.0885 13.5565 13.7957 13.4982 13.5001 13.4982C13.2044 13.4982 12.9116 13.5565 12.6384 13.6697C12.3653 13.783 12.1172 13.9489 11.9082 14.1581L0.658186 25.4081C0.448989 25.6171 0.283031 25.8652 0.169802 26.1384C0.056572 26.4115 -0.00170898 26.7043 -0.00170898 27C-0.00170898 27.2957 0.056572 27.5885 0.169802 27.8616C0.283031 28.1348 0.448989 28.3829 0.658186 28.5919L11.9082 39.8419C12.1172 40.0511 12.3653 40.217 12.6384 40.3303C12.9116 40.4435 13.2044 40.5018 13.5001 40.5018C13.7957 40.5018 14.0885 40.4435 14.3617 40.3303C14.6348 40.217 14.883 40.0511 15.0919 39.8419L24.7501 30.1809L32.8191 38.25L23.1582 47.9081C22.949 48.1171 22.783 48.3652 22.6698 48.6384C22.5566 48.9115 22.4983 49.2043 22.4983 49.5C22.4983 49.7957 22.5566 50.0885 22.6698 50.3616C22.783 50.6348 22.949 50.8829 23.1582 51.0919L34.4082 62.3419C34.6171 62.5511 34.8653 62.717 35.1384 62.8303C35.4116 62.9435 35.7044 63.0018 36.0001 63.0018C36.2957 63.0018 36.5885 62.9435 36.8617 62.8303C37.1348 62.717 37.383 62.5511 37.5919 62.3419L48.8419 51.0919C49.0511 50.8829 49.2171 50.6348 49.3303 50.3616C49.4436 50.0885 49.5018 49.7957 49.5018 49.5C49.5018 49.2043 49.4436 48.9115 49.3303 48.6384C49.2171 48.3652 49.0511 48.1171 48.8419 47.9081L39.181 38.25L47.2501 30.1809L56.9082 39.8419C57.1171 40.0511 57.3653 40.217 57.6384 40.3303C57.9116 40.4435 58.2044 40.5018 58.5001 40.5018C58.7957 40.5018 59.0885 40.4435 59.3617 40.3303C59.6348 40.217 59.883 40.0511 60.0919 39.8419L71.3419 28.5919C71.5511 28.3829 71.7171 28.1348 71.8303 27.8616C71.9436 27.5885 72.0018 27.2957 72.0018 27C72.0018 26.7043 71.9436 26.4115 71.8303 26.1384C71.7171 25.8652 71.5511 25.6171 71.3419 25.4081ZM13.5001 35.0691L5.431 27L13.5001 18.9309L21.5691 27L13.5001 35.0691ZM36.0001 57.5691L27.931 49.5L36.0001 41.4309L44.0691 49.5L36.0001 57.5691ZM36.0001 35.0691L27.931 27L36.0001 18.9309L44.0691 27L36.0001 35.0691ZM58.5001 35.0691L50.431 27L58.5001 18.9309L66.5691 27L58.5001 35.0691Z" fill="black" fill-opacity="0.2"/>
  </g>
  <defs>
    <clipPath id="clip0_160_1088">
      <rect width="72" height="72" fill="white"/>
    </clipPath>
  </defs>
</svg>