<svg xmlns="http://www.w3.org/2000/svg" width="72" height="72" viewBox="0 0 72 72" fill="none">
  <path d="M61.875 27C61.869 21.3328 59.6151 15.8995 55.6078 11.8922C51.6005 7.88487 46.1672 5.63096 40.5 5.625H18C17.1049 5.625 16.2464 5.98058 15.6135 6.61351C14.9806 7.24645 14.625 8.10489 14.625 9V45C14.6317 51.2637 17.1229 57.2689 21.552 61.698C25.9811 66.1271 31.9863 68.6183 38.25 68.625C39.1451 68.625 40.0035 68.2694 40.6365 67.6365C41.2694 67.0035 41.625 66.1451 41.625 65.25V48.3441C47.0893 48.0499 52.2333 45.6737 55.9997 41.7039C59.766 37.734 61.8685 32.4722 61.875 27ZM21.375 21.8841L32.4788 41.625H21.375V21.8841ZM34.875 32.1159L23.7712 12.375H34.875V32.1159ZM21.7181 48.375H34.875V61.5347C31.6361 60.8664 28.664 59.2639 26.3258 56.9252C23.9876 54.5865 22.3857 51.614 21.7181 48.375ZM41.625 41.5772V12.4228C45.2872 12.7197 48.7036 14.3841 51.1945 17.0851C53.6854 19.7861 55.0684 23.3258 55.0684 27C55.0684 30.6742 53.6854 34.2139 51.1945 36.9149C48.7036 39.6159 45.2872 41.2803 41.625 41.5772Z" fill="black" fill-opacity="0.2"/>
</svg>