<svg xmlns="http://www.w3.org/2000/svg" width="72" height="72" viewBox="0 0 72 72" fill="none">
  <path d="M23.07 34.5H33.993V28.8H23.07C22.6676 28.8055 22.2838 28.9703 22.0027 29.2581C21.7216 29.546 21.566 29.9336 21.57 30.336V32.955C21.5668 33.155 21.6031 33.3536 21.6768 33.5396C21.7505 33.7255 21.8602 33.8951 21.9995 34.0386C22.1388 34.1821 22.3051 34.2967 22.4888 34.3759C22.6725 34.4551 22.87 34.4972 23.07 34.5ZM23.07 24.09H33.993V18.39H23.07C22.6676 18.3955 22.2838 18.5603 22.0027 18.8481C21.7216 19.136 21.566 19.5236 21.57 19.926V22.545C21.5668 22.745 21.6031 22.9436 21.6768 23.1296C21.7505 23.3155 21.8602 23.4851 21.9995 23.6286C22.1388 23.7721 22.3051 23.8867 22.4888 23.9659C22.6725 24.0451 22.87 24.0872 23.07 24.09ZM52.626 19.905C52.6238 19.5104 52.469 19.1319 52.194 18.849C52.0585 18.7051 51.8948 18.5909 51.7131 18.5135C51.5313 18.436 51.3355 18.397 51.138 18.399H40.2V24.063H51.123C51.5253 24.0574 51.9091 23.8927 52.1902 23.6048C52.4714 23.3169 52.627 22.9293 52.623 22.527L52.626 19.905ZM23.07 13.656H51.129C51.3282 13.656 51.5255 13.6163 51.7093 13.5393C51.8931 13.4622 52.0596 13.3493 52.1993 13.2071C52.3389 13.065 52.4489 12.8964 52.5226 12.7113C52.5964 12.5262 52.6325 12.3282 52.629 12.129V9.49797C52.633 9.0956 52.4774 8.70804 52.1962 8.42015C51.9151 8.13226 51.5313 7.96751 51.129 7.96198H23.07C22.6684 7.96985 22.286 8.13533 22.0053 8.42271C21.7247 8.71009 21.5683 9.0963 21.57 9.49797V12.12C21.566 12.5223 21.7216 12.9099 22.0027 13.1978C22.2838 13.4857 22.6676 13.6504 23.07 13.656ZM40.2 28.815V34.5H51.123C51.3223 34.4976 51.5192 34.456 51.7025 34.3776C51.8858 34.2991 52.0518 34.1853 52.1911 34.0427C52.3304 33.9 52.4402 33.7314 52.5143 33.5463C52.5884 33.3612 52.6253 33.1633 52.623 32.964V30.33C52.621 29.9327 52.4663 29.5514 52.191 29.265C52.0555 29.1211 51.8918 29.0069 51.7101 28.9295C51.5283 28.852 51.3325 28.813 51.135 28.815H40.2ZM63.543 37.5H61.815C59.598 37.5 59.463 37.749 59.289 38.133L55.863 46.533C54.72 49.329 53.55 52.332 53.097 53.889C52.3305 51.3347 51.4078 48.83 50.334 46.389L46.905 38.124C46.695 37.635 45.831 37.491 43.968 37.491H42.03C40.128 37.491 39.744 37.665 39.744 38.058V63.45C39.744 63.909 40.128 64.017 42.096 64.017H43.17C45.111 64.017 45.666 63.909 45.666 63.45V48.408H45.801C45.9175 48.8669 46.069 49.3162 46.254 49.752L50.199 59.199C50.37 59.622 50.583 59.799 52.416 59.799H53.586C55.458 59.799 55.593 59.664 55.767 59.199L59.367 50.106C59.5954 49.5504 59.7957 48.9837 59.967 48.408H60.102V63.462C60.102 63.921 60.486 64.026 62.52 64.026H63.558C65.457 64.026 66.015 63.921 66.015 63.462V38.079C66 37.686 65.454 37.5 63.543 37.5ZM24.3 37.5H6.63596C6.11696 37.5 6.01196 37.5 6.01196 39.441V41.178C6.01196 43.059 6.15596 43.194 6.63596 43.194H12.498V63.45C12.498 63.912 12.846 64.017 14.85 64.017H15.9C17.868 64.017 18.426 63.912 18.426 63.45V43.2H24.3C24.789 43.2 24.924 42.99 24.924 41.184V39.45C24.9 37.578 24.807 37.5 24.3 37.5ZM32.382 37.5H31.278C29.271 37.5 28.926 37.674 28.926 38.067V63.45C28.926 63.909 29.271 64.014 31.278 64.014H32.382C34.281 64.014 34.839 63.909 34.839 63.45V38.079C34.839 37.686 34.281 37.5 32.382 37.5Z" fill="black" fill-opacity="0.2"/>
</svg>