<svg xmlns="http://www.w3.org/2000/svg" width="72" height="72" viewBox="0 0 72 72" fill="none">
  <path d="M70.875 47.25V56.25C70.875 57.1451 70.5194 58.0036 69.8865 58.6365C69.2535 59.2694 68.3951 59.625 67.5 59.625C66.6049 59.625 65.7464 59.2694 65.1135 58.6365C64.4806 58.0036 64.125 57.1451 64.125 56.25V55.381C60.6262 58.6153 50.6953 66.375 36 66.375C17.8312 66.375 6.94687 54.5119 6.49124 54C6.16663 53.6758 5.91153 53.2888 5.74154 52.8626C5.57155 52.4365 5.49023 51.9801 5.50256 51.5215C5.51489 51.0628 5.6206 50.6115 5.81323 50.1951C6.00587 49.7787 6.28139 49.4059 6.62295 49.0996C6.96451 48.7933 7.36494 48.5598 7.79978 48.4135C8.23462 48.2671 8.69474 48.2109 9.15201 48.2484C9.60929 48.2859 10.0541 48.4162 10.4593 48.6314C10.8645 48.8466 11.2216 49.1422 11.5087 49.5C11.5931 49.5928 20.925 59.625 36 59.625C47.9953 59.625 56.3456 53.2744 59.3072 50.625H58.5C57.6049 50.625 56.7464 50.2694 56.1135 49.6365C55.4806 49.0036 55.125 48.1451 55.125 47.25C55.125 46.3549 55.4806 45.4965 56.1135 44.8635C56.7464 44.2306 57.6049 43.875 58.5 43.875H67.5C68.3951 43.875 69.2535 44.2306 69.8865 44.8635C70.5194 45.4965 70.875 46.3549 70.875 47.25ZM43.875 24.21V23.625C43.8756 21.6842 43.2488 19.7952 42.0881 18.2397C40.9274 16.6843 39.295 15.5457 37.4343 14.9938C35.5737 14.4418 33.5844 14.5062 31.7633 15.1772C29.9422 15.8482 28.3868 17.09 27.3291 18.7172C26.8405 19.4672 26.074 19.9924 25.1981 20.1773C24.3223 20.3622 23.4089 20.1916 22.6589 19.703C21.9089 19.2144 21.3837 18.4479 21.1988 17.5721C21.0139 16.6962 21.1845 15.7829 21.6731 15.0328C23.5249 12.1865 26.247 10.0149 29.4337 8.84175C32.6203 7.6686 36.1007 7.55674 39.356 8.52285C42.6114 9.48896 45.4673 11.4813 47.4981 14.2028C49.5289 16.9244 50.6257 20.2293 50.625 23.625V49.5C50.6194 50.347 50.2955 51.1609 49.7176 51.7802C49.1397 52.3995 48.3501 52.7788 47.5055 52.8429C46.6609 52.907 45.8231 52.6512 45.1583 52.1262C44.4936 51.6012 44.0506 50.8455 43.9172 50.0091C41.5598 51.6663 38.7929 52.645 35.9178 52.8387C33.0427 53.0324 30.1696 52.4336 27.6112 51.1075C25.0529 49.7814 22.9073 47.7788 21.4083 45.3178C19.9092 42.8568 19.114 40.0317 19.1093 37.1501C19.1046 34.2685 19.8905 31.4408 21.3815 28.9749C22.8726 26.509 25.0115 24.4994 27.5655 23.165C30.1195 21.8305 32.9907 21.2223 35.8664 21.4066C38.7421 21.5908 41.5122 22.5605 43.875 24.21ZM43.875 37.125C43.875 35.345 43.3472 33.6049 42.3582 32.1249C41.3693 30.6448 39.9637 29.4913 38.3191 28.8101C36.6746 28.1289 34.865 27.9507 33.1192 28.2979C31.3734 28.6452 29.7697 29.5024 28.511 30.7611C27.2524 32.0197 26.3952 33.6234 26.0479 35.3692C25.7007 37.115 25.8789 38.9246 26.5601 40.5692C27.2413 42.2137 28.3948 43.6193 29.8749 44.6082C31.3549 45.5972 33.095 46.125 34.875 46.125C37.2619 46.125 39.5511 45.1768 41.239 43.489C42.9268 41.8011 43.875 39.512 43.875 37.125Z" fill="black" fill-opacity="0.2"/>
</svg>