<svg xmlns="http://www.w3.org/2000/svg" width="72" height="72" viewBox="0 0 72 72" fill="none">
  <path fill-rule="evenodd" clip-rule="evenodd" d="M36 11.25C30.6523 11.248 25.4478 12.978 21.1656 16.1813C16.8834 19.3845 13.7539 23.8885 12.2455 29.019C10.7372 34.1496 10.9311 39.6307 12.7983 44.6418C14.6656 49.6529 18.1056 53.9245 22.6035 56.817L26.1585 45.2475C24.3543 43.3279 23.1511 40.9223 22.6973 38.3272C22.2435 35.7321 22.5589 33.061 23.6046 30.643C24.6504 28.225 26.3807 26.1658 28.5824 24.7192C30.7842 23.2726 33.3611 22.5018 35.9955 22.5018C38.6299 22.5018 41.2068 23.2726 43.4086 24.7192C45.6103 26.1658 47.3406 28.225 48.3864 30.643C49.4321 33.061 49.7475 35.7321 49.2937 38.3272C48.8399 40.9223 47.6367 43.3279 45.8325 45.2475L49.3965 56.8125C53.8923 53.9192 57.3304 49.6478 59.1962 44.6376C61.0621 39.6274 61.2554 34.1477 59.7473 29.0184C58.2392 23.8891 55.1107 19.3861 50.8299 16.1832C46.5492 12.9802 41.3464 11.2495 36 11.25ZM4.5 36C4.50118 30.3278 6.03392 24.7612 8.9364 19.8879C11.8389 15.0145 16.0034 11.0154 20.9902 8.31256C25.977 5.60976 31.6012 4.30364 37.2687 4.5321C42.9363 4.76056 48.437 6.51512 53.1902 9.61054C57.9433 12.706 61.7724 17.0274 64.2732 22.1185C66.774 27.2096 67.8537 32.8815 67.3983 38.5354C66.943 44.1893 64.9694 49.6153 61.686 54.2406C58.4026 58.8658 53.9312 62.5187 48.744 64.8135C48.3082 65.0062 47.8365 65.1044 47.3599 65.1017C46.8834 65.099 46.4128 64.9953 45.9792 64.7977C45.5456 64.6 45.1588 64.3127 44.8442 63.9548C44.5296 63.5969 44.2944 63.1764 44.154 62.721L38.754 45.1665C38.547 44.4961 38.5541 43.7779 38.7743 43.1117C38.9944 42.4455 39.4168 41.8645 39.9825 41.4495C41.1321 40.6094 41.9867 39.4273 42.4239 38.0722C42.8611 36.7171 42.8586 35.2584 42.4168 33.9049C41.9749 32.5513 41.1163 31.3721 39.9638 30.5359C38.8113 29.6998 37.4239 29.2495 36 29.2495C34.5761 29.2495 33.1887 29.6998 32.0362 30.5359C30.8837 31.3721 30.0251 32.5513 29.5832 33.9049C29.1414 35.2584 29.1389 36.7171 29.5761 38.0722C30.0133 39.4273 30.8679 40.6094 32.0175 41.4495C32.584 41.8639 33.0072 42.4446 33.2282 43.1109C33.4492 43.7771 33.457 44.4956 33.2505 45.1665L27.8505 62.721C27.7102 63.1769 27.4749 63.598 27.1599 63.9563C26.845 64.3147 26.4577 64.6022 26.0236 64.7999C25.5894 64.9977 25.1183 65.1011 24.6412 65.1035C24.1642 65.1058 23.6921 65.007 23.256 64.8135C17.6746 62.3437 12.9308 58.3059 9.60116 53.1907C6.27148 48.0756 4.4993 42.1034 4.5 36Z" fill="black" fill-opacity="0.2"/>
</svg>