<svg xmlns="http://www.w3.org/2000/svg" width="49" height="46" viewBox="0 0 49 46" fill="none">
  <path d="M0 2.125C0 1.69402 0.171205 1.2807 0.475951 0.975952C0.780698 0.671205 1.19402 0.5 1.625 0.5H6.5C6.86248 0.5001 7.21451 0.62139 7.50013 0.84458C7.78574 1.06777 7.98853 1.38005 8.07625 1.73175L9.3925 7H47.125C47.3718 7.00007 47.6154 7.05637 47.8372 7.16462C48.0591 7.27288 48.2533 7.43024 48.4052 7.62478C48.5572 7.81931 48.6628 8.0459 48.7141 8.28735C48.7654 8.5288 48.761 8.77875 48.7012 9.01825L43.8262 28.5183C43.7385 28.87 43.5357 29.1822 43.2501 29.4054C42.9645 29.6286 42.6125 29.7499 42.25 29.75H13C12.6375 29.7499 12.2855 29.6286 11.9999 29.4054C11.7143 29.1822 11.5115 28.87 11.4237 28.5183L5.2325 3.75H1.625C1.19402 3.75 0.780698 3.57879 0.475951 3.27405C0.171205 2.9693 0 2.55598 0 2.125ZM10.205 10.25L11.83 16.75H16.25V10.25H10.205ZM19.5 10.25V16.75H26V10.25H19.5ZM29.25 10.25V16.75H35.75V10.25H29.25ZM39 10.25V16.75H43.42L45.045 10.25H39ZM42.6075 20H39V26.5H40.9825L42.6075 20ZM35.75 20H29.25V26.5H35.75V20ZM26 20H19.5V26.5H26V20ZM16.25 20H12.6425L14.2675 26.5H16.25V20ZM16.25 36.25C15.388 36.25 14.5614 36.5924 13.9519 37.2019C13.3424 37.8114 13 38.638 13 39.5C13 40.362 13.3424 41.1886 13.9519 41.7981C14.5614 42.4076 15.388 42.75 16.25 42.75C17.112 42.75 17.9386 42.4076 18.5481 41.7981C19.1576 41.1886 19.5 40.362 19.5 39.5C19.5 38.638 19.1576 37.8114 18.5481 37.2019C17.9386 36.5924 17.112 36.25 16.25 36.25ZM9.75 39.5C9.75 37.7761 10.4348 36.1228 11.6538 34.9038C12.8728 33.6848 14.5261 33 16.25 33C17.9739 33 19.6272 33.6848 20.8462 34.9038C22.0652 36.1228 22.75 37.7761 22.75 39.5C22.75 41.2239 22.0652 42.8772 20.8462 44.0962C19.6272 45.3152 17.9739 46 16.25 46C14.5261 46 12.8728 45.3152 11.6538 44.0962C10.4348 42.8772 9.75 41.2239 9.75 39.5ZM39 36.25C38.138 36.25 37.3114 36.5924 36.7019 37.2019C36.0924 37.8114 35.75 38.638 35.75 39.5C35.75 40.362 36.0924 41.1886 36.7019 41.7981C37.3114 42.4076 38.138 42.75 39 42.75C39.862 42.75 40.6886 42.4076 41.2981 41.7981C41.9076 41.1886 42.25 40.362 42.25 39.5C42.25 38.638 41.9076 37.8114 41.2981 37.2019C40.6886 36.5924 39.862 36.25 39 36.25ZM32.5 39.5C32.5 37.7761 33.1848 36.1228 34.4038 34.9038C35.6228 33.6848 37.2761 33 39 33C40.7239 33 42.3772 33.6848 43.5962 34.9038C44.8152 36.1228 45.5 37.7761 45.5 39.5C45.5 41.2239 44.8152 42.8772 43.5962 44.0962C42.3772 45.3152 40.7239 46 39 46C37.2761 46 35.6228 45.3152 34.4038 44.0962C33.1848 42.8772 32.5 41.2239 32.5 39.5Z" fill="#035FA8"/>
</svg>