<svg xmlns="http://www.w3.org/2000/svg" width="32" height="32" viewBox="0 0 32 32" fill="none">
  <path d="M30 4.66666H0.666626V31.3333H30V4.66666Z" fill="white"/>
  <path d="M30 28.6667H0.666626V31.3333H30V28.6667Z" fill="#BBD8FF"/>
  <path d="M9.99996 16.6667H4.66663V22H9.99996V16.6667Z" fill="#BBD8FF"/>
  <path d="M26 22H20.6666V27.3333H26V22Z" fill="#BBD8FF"/>
  <path d="M7.33337 2V7.33333" stroke="#092F63" stroke-miterlimit="10" stroke-linecap="round" stroke-linejoin="round"/>
  <path d="M12.6666 2V7.33333" stroke="#092F63" stroke-miterlimit="10" stroke-linecap="round" stroke-linejoin="round"/>
  <path d="M18 2V7.33333" stroke="#092F63" stroke-miterlimit="10" stroke-linecap="round" stroke-linejoin="round"/>
  <path d="M23.3334 2V7.33333" stroke="#092F63" stroke-miterlimit="10" stroke-linecap="round" stroke-linejoin="round"/>
  <path d="M30 4.66666H0.666626V31.3333H30V4.66666Z" stroke="#092F63" stroke-miterlimit="10" stroke-linecap="round" stroke-linejoin="round"/>
  <path d="M9.99996 16.6667V11.3333H26V27.3333H4.66663V16.6667H9.99996Z" stroke="#092F63" stroke-miterlimit="10" stroke-linecap="round" stroke-linejoin="round"/>
  <path d="M10 16.6667V27.3333" stroke="#092F63" stroke-miterlimit="10" stroke-linecap="round" stroke-linejoin="round"/>
  <path d="M15.3334 11.3333V27.3333" stroke="#092F63" stroke-miterlimit="10" stroke-linecap="round" stroke-linejoin="round"/>
  <path d="M20.6666 11.3333V27.3333" stroke="#092F63" stroke-miterlimit="10" stroke-linecap="round" stroke-linejoin="round"/>
  <path d="M10 16.6667H26" stroke="#092F63" stroke-miterlimit="10" stroke-linecap="round" stroke-linejoin="round"/>
  <path d="M4.66663 22H26" stroke="#092F63" stroke-miterlimit="10" stroke-linecap="round" stroke-linejoin="round"/>
</svg>