<svg xmlns="http://www.w3.org/2000/svg" width="36" height="36" viewBox="0 0 36 36" fill="none">
  <g clip-path="url(#clip0_68_261)">
    <path d="M13.6515 35.5364V23.5664H9.9405V18.0659H13.6515V15.6959C13.6515 9.56842 16.4235 6.72892 22.4385 6.72892C23.04 6.72892 23.871 6.79192 24.6405 6.88342C25.2169 6.94273 25.7886 7.04044 26.352 7.17592V12.1634C26.0263 12.133 25.6996 12.115 25.3725 12.1094C25.0061 12.0999 24.6395 12.0954 24.273 12.0959C23.2125 12.0959 22.3845 12.2399 21.7605 12.5594C21.341 12.7699 20.9883 13.0929 20.742 13.4924C20.355 14.1224 20.181 14.9849 20.181 16.1204V18.0659H26.0595L25.4805 21.2204L25.05 23.5664H20.181V35.9339C29.094 34.8569 36 27.2684 36 18.0659C36 8.12542 27.9405 0.065918 18 0.065918C8.0595 0.065918 0 8.12542 0 18.0659C0 26.5079 5.811 33.5909 13.6515 35.5364Z" fill="#EBEBEB"/>
  </g>
  <defs>
    <clipPath id="clip0_68_261">
      <rect width="36" height="36" fill="white"/>
    </clipPath>
  </defs>
</svg>