<svg xmlns="http://www.w3.org/2000/svg" width="1440" height="384" viewBox="0 0 1440 384" fill="none">
  <g opacity="0.6" filter="url(#filter0_f_68_246)">
    <path d="M1440 258.057L1362.64 167.058C1362.64 167.058 1363.01 167.471 1349.23 144.492C1343.81 135.463 1330.2 121.928 1316.68 120.091C1269.55 113.686 1234.85 127.456 1230.49 167.058C1226.55 202.784 1229.03 237.443 1221.32 272.918C1216.43 295.406 1213 296.78 1197.59 315.849C1182.43 334.598 1128.77 324.322 1114.04 315.849C1059.74 284.615 1032.01 230.663 995.53 186.872C978.839 166.834 914.226 101.216 874.499 99.5423M874.499 99.5423C862.313 99.029 886.77 99.5423 874.499 99.5423ZM874.499 99.5423C850.019 96.2152 803.308 88.0604 778.081 91.1667C763.512 92.9607 716.193 96.0965 701.433 99.5423C637.692 114.422 622.314 167.703 623.037 214.025C623.51 244.296 631.959 254.263 667.049 264.845C686.966 270.852 721.117 277.57 726.189 297.869C730.651 315.724 735.193 336.358 726.189 358.876C717.185 381.393 661.497 377.985 631.159 374.388C557.02 374.388 509.392 337.587 491.691 314.565C483.341 303.705 482.751 290.555 482.751 278.238C482.751 265.756 482.369 253.303 485.501 240.995C490.637 220.815 542.175 153.135 557.02 137.52C557.02 137.52 598.689 103.755 603.025 82.1597C604.748 73.5773 612.271 52.0924 587.049 30.3755C561.762 8.60279 546.752 8.60279 518.623 8.60279C487.828 8.60279 385.998 1.39989 360.802 17.5329C327.176 39.0639 309.283 69.1511 313.811 103.579C315.252 114.537 336.065 127.816 344.298 136.603C360.09 153.455 373.84 160.717 381.433 181.552C388.194 200.104 391.353 228.122 359.198 220.08C334.416 213.881 300.813 180.304 273.238 195.312C257.114 204.087 273.887 233.124 285.616 240.077C314.959 257.474 346.719 267.021 364.47 294.383C370.981 304.421 379.009 321.59 374.556 332.728C363.544 360.271 326.806 354.98 299.828 347.956C246.784 334.145 105.864 220.08 91.0029 210.356C76.1416 200.632 54.5559 192.771 27.2779 208.521C0 224.271 20.9207 257.948 20.6304 271.634C20.3401 285.319 23.7886 294.383 0 294.383" stroke="#328CD3" stroke-width="2" stroke-linecap="round"/>
  </g>
  <defs>
    <filter id="filter0_f_68_246" x="-7" y="0" width="1454" height="384" filterUnits="userSpaceOnUse" color-interpolation-filters="sRGB">
      <feFlood flood-opacity="0" result="BackgroundImageFix"/>
      <feBlend mode="normal" in="SourceGraphic" in2="BackgroundImageFix" result="shape"/>
      <feGaussianBlur stdDeviation="3" result="effect1_foregroundBlur_68_246"/>
    </filter>
  </defs>
</svg>