<svg xmlns="http://www.w3.org/2000/svg" width="28" height="28" viewBox="0 0 28 28" fill="none">
  <path d="M20.7229 17.1729C20.7229 18.3995 21.0715 18.8886 21.9829 18.8886C24.0144 18.8886 25.3079 16.2968 25.3079 11.9864C25.3079 5.39821 20.5129 2.24426 14.5265 2.24426C8.36792 2.24426 2.76646 6.37943 2.76646 14.1942C2.76646 21.6585 7.66646 25.7236 15.1915 25.7236C17.7465 25.7236 19.4615 25.4433 22.085 24.5672L22.6479 26.9136C20.0579 27.7562 17.29 28 15.1565 28C5.28646 28 0 22.5682 0 14.1927C0 5.74718 6.12646 0 14.5615 0C23.3465 0 28 5.25657 28 11.7046C28 17.1715 26.2865 21.3417 20.8965 21.3417C18.445 21.3417 16.8365 20.3604 16.6265 18.1863C15.9965 20.6043 14.3165 21.3417 12.04 21.3417C8.995 21.3417 6.44 18.9923 6.44 14.2628C6.44 9.49687 8.68146 6.55319 12.7065 6.55319C14.8415 6.55319 16.1715 7.39424 16.7635 8.72591L17.78 6.86858H20.72V17.1729H20.7229ZM16.4194 12.5471C16.4194 10.6212 14.9829 9.81372 13.7929 9.81372C12.4979 9.81372 11.0644 10.8636 11.0644 13.9489C11.0644 16.402 12.1494 17.7687 13.7929 17.7687C14.9479 17.7687 16.4194 17.0327 16.4194 15.0002V12.5471Z" fill="white"/>
</svg>