<svg xmlns="http://www.w3.org/2000/svg" width="20" height="20" viewBox="0 0 20 20" fill="none">
  <path d="M12.9167 0.833313H6.25008C5.69755 0.833313 5.16764 1.05281 4.77694 1.44351C4.38624 1.83421 4.16675 2.36411 4.16675 2.91665V17.0833C4.16675 17.6359 4.38624 18.1658 4.77694 18.5565C5.16764 18.9472 5.69755 19.1667 6.25008 19.1667H12.9167C13.4693 19.1667 13.9992 18.9472 14.3899 18.5565C14.7806 18.1658 15.0001 17.6359 15.0001 17.0833V2.91665C15.0001 2.36411 14.7806 1.83421 14.3899 1.44351C13.9992 1.05281 13.4693 0.833313 12.9167 0.833313ZM9.58342 18.3333C8.89175 18.3333 8.33342 17.775 8.33342 17.0833C8.33342 16.3917 8.89175 15.8333 9.58342 15.8333C10.2751 15.8333 10.8334 16.3917 10.8334 17.0833C10.8334 17.775 10.2751 18.3333 9.58342 18.3333ZM13.3334 15H5.83341V3.33331H13.3334V15Z" fill="#035FA8"/>
</svg>