<svg xmlns="http://www.w3.org/2000/svg" width="28" height="28" viewBox="0 0 28 28" fill="none">
  <path d="M18.0834 1.16667H8.75004C7.97649 1.16667 7.23463 1.47396 6.68765 2.02094C6.14066 2.56792 5.83337 3.30979 5.83337 4.08334V23.9167C5.83337 24.6902 6.14066 25.4321 6.68765 25.9791C7.23463 26.526 7.97649 26.8333 8.75004 26.8333H18.0834C18.8569 26.8333 19.5988 26.526 20.1458 25.9791C20.6928 25.4321 21 24.6902 21 23.9167V4.08334C21 3.30979 20.6928 2.56792 20.1458 2.02094C19.5988 1.47396 18.8569 1.16667 18.0834 1.16667ZM13.4167 25.6667C12.4484 25.6667 11.6667 24.885 11.6667 23.9167C11.6667 22.9483 12.4484 22.1667 13.4167 22.1667C14.385 22.1667 15.1667 22.9483 15.1667 23.9167C15.1667 24.885 14.385 25.6667 13.4167 25.6667ZM18.6667 21H8.16671V4.66667H18.6667V21Z" fill="white"/>
</svg>