<svg xmlns="http://www.w3.org/2000/svg" width="32" height="32" viewBox="0 0 32 32" fill="none">
  <g clip-path="url(#clip0_187_2)">
    <path d="M4.688 27.312C3.15984 25.8361 1.94092 24.0705 1.10238 22.1185C0.263832 20.1664 -0.177548 18.0669 -0.196009 15.9424C-0.21447 13.8179 0.190357 11.7111 0.994851 9.74473C1.79935 7.77839 2.9874 5.99196 4.48968 4.48968C5.99196 2.9874 7.77839 1.79935 9.74473 0.994851C11.7111 0.190357 13.8179 -0.21447 15.9424 -0.196009C18.0669 -0.177548 20.1664 0.263832 22.1185 1.10238C24.0705 1.94092 25.8361 3.15984 27.312 4.688C30.2265 7.70563 31.8392 11.7473 31.8028 15.9424C31.7663 20.1376 30.0836 24.1506 27.1171 27.1171C24.1506 30.0836 20.1376 31.7663 15.9424 31.8028C11.7473 31.8392 7.70563 30.2265 4.688 27.312ZM25.056 25.056C27.4578 22.6542 28.8071 19.3967 28.8071 16C28.8071 12.6033 27.4578 9.3458 25.056 6.944C22.6542 4.5422 19.3967 3.19288 16 3.19288C12.6033 3.19288 9.3458 4.5422 6.944 6.944C4.5422 9.3458 3.19288 12.6033 3.19288 16C3.19288 19.3967 4.5422 22.6542 6.944 25.056C9.3458 27.4578 12.6033 28.8071 16 28.8071C19.3967 28.8071 22.6542 27.4578 25.056 25.056ZM11.2 9.6L24 16L11.2 22.4V9.6Z" fill="#035FA8"/>
  </g>
  <defs>
    <clipPath id="clip0_187_2">
      <rect width="32" height="32" fill="white"/>
    </clipPath>
  </defs>
</svg>