<svg xmlns="http://www.w3.org/2000/svg" width="32" height="32" viewBox="0 0 32 32" fill="none">
  <g clip-path="url(#clip0_61_236)">
    <path d="M28.6666 8.88267L31.3333 6.22134L30.012 3.90401L26.3386 4.84934L24.124 3.56534L23.3333 0.666672H20.6666L19.876 3.56534L17.6613 4.84934L13.9866 3.90401L12.6666 6.22134L15.3333 8.88267V11.1173L12.6666 13.7787L13.9866 16.096L17.6613 15.1507L19.876 16.4347L20.6666 19.3333H23.3333L24.124 16.4347L26.3386 15.1507L30.012 16.096L31.3333 13.7787L28.6666 11.1173V8.88267Z" fill="white"/>
    <path d="M11.3333 24.6667V19.3333H9.99996L6.66663 24.6667H4.66663V23.3333H0.666626V31.3333H4.66663V30H12L22.6666 27.3333L24.6666 24.6667H11.3333Z" fill="white"/>
    <path d="M4.66663 26H0.666626V31.3333H4.66663V26Z" fill="#BBD8FF"/>
    <path d="M27.8493 4.46134L16.9854 15.324L17.6614 15.1507L19.876 16.4347L20.6667 19.3333H23.3334L24.124 16.4347L26.3387 15.1507L30.0134 16.096L31.3334 13.7787L28.6667 11.1173V8.88267L31.3334 6.22134L30.0134 3.90401L27.8493 4.46134Z" fill="#BBD8FF"/>
    <path d="M4.66663 30H12L22.6666 27.3333L24.6666 24.6667H11.3333V19.3333H9.99996L6.66663 24.6667H4.66663" stroke="#092F63" stroke-linecap="round" stroke-linejoin="round"/>
    <path d="M4.66663 23.3333H0.666626V31.3333H4.66663V23.3333Z" stroke="#092F63" stroke-linecap="round" stroke-linejoin="round"/>
    <path d="M18 8L22 5.63333L26 8V12L22 14.3667L18 12V8Z" stroke="#092F63" stroke-linecap="round" stroke-linejoin="round"/>
    <path d="M22 9.33333L21.3334 9.99999L22 10.6667" stroke="#092F63" stroke-linecap="round" stroke-linejoin="round"/>
    <path d="M22 9.33333L22.6667 9.99999L22 10.6667" stroke="#092F63" stroke-linecap="round" stroke-linejoin="round"/>
    <path d="M28.6666 8.88267L31.3333 6.22134L30.012 3.90401L26.3386 4.84934L24.124 3.56534L23.3333 0.666672H20.6666L19.876 3.56534L17.6613 4.84934L13.9866 3.90401L12.6666 6.22134L15.3333 8.88267V11.1173L12.6666 13.7787L13.9866 16.096L17.6613 15.1507L19.876 16.4347L20.6666 19.3333H23.3333L24.124 16.4347L26.3386 15.1507L30.012 16.096L31.3333 13.7787L28.6666 11.1173V8.88267Z" stroke="#092F63" stroke-linecap="round" stroke-linejoin="round"/>
  </g>
  <defs>
    <clipPath id="clip0_61_236">
      <rect width="32" height="32" fill="white"/>
    </clipPath>
  </defs>
</svg>