<svg xmlns="http://www.w3.org/2000/svg" width="36" height="36" viewBox="0 0 36 36" fill="none">
  <path d="M27 27C27.625 27 28.1565 26.7815 28.5945 26.3445C29.0325 25.9075 29.251 25.376 29.25 24.75C29.25 24.125 29.0315 23.594 28.5945 23.157C28.1575 22.72 27.626 22.501 27 22.5C26.375 22.5 25.844 22.719 25.407 23.157C24.97 23.595 24.751 24.126 24.75 24.75C24.75 25.375 24.969 25.9065 25.407 26.3445C25.845 26.7825 26.376 27.001 27 27ZM27 31.5C27.75 31.5 28.45 31.325 29.1 30.975C29.75 30.625 30.2875 30.1375 30.7125 29.5125C30.1375 29.1625 29.5375 28.906 28.9125 28.743C28.2875 28.58 27.65 28.499 27 28.5C26.35 28.5 25.7125 28.581 25.0875 28.743C24.4625 28.905 23.8625 29.1615 23.2875 29.5125C23.7125 30.1375 24.25 30.625 24.9 30.975C25.55 31.325 26.25 31.5 27 31.5ZM7.5 31.5C6.675 31.5 5.969 31.2065 5.382 30.6195C4.795 30.0325 4.501 29.326 4.5 28.5V7.5C4.5 6.675 4.794 5.969 5.382 5.382C5.97 4.795 6.676 4.501 7.5 4.5H28.5C29.325 4.5 30.0315 4.794 30.6195 5.382C31.2075 5.97 31.501 6.676 31.5 7.5V17.55C31.025 17.325 30.5375 17.1315 30.0375 16.9695C29.5375 16.8075 29.025 16.6885 28.5 16.6125V7.5H7.5V28.5H16.575C16.65 29.05 16.769 29.575 16.932 30.075C17.095 30.575 17.2885 31.05 17.5125 31.5H7.5ZM7.5 27V28.5V7.5V16.6125V16.5V27ZM10.5 25.5H16.6125C16.6875 24.975 16.8065 24.4625 16.9695 23.9625C17.1325 23.4625 17.3135 22.975 17.5125 22.5H10.5V25.5ZM10.5 19.5H19.65C20.45 18.75 21.344 18.125 22.332 17.625C23.32 17.125 24.376 16.7875 25.5 16.6125V16.5H10.5V19.5ZM10.5 13.5H25.5V10.5H10.5V13.5ZM27 34.5C24.925 34.5 23.1565 33.769 21.6945 32.307C20.2325 30.845 19.501 29.076 19.5 27C19.5 24.925 20.2315 23.1565 21.6945 21.6945C23.1575 20.2325 24.926 19.501 27 19.5C29.075 19.5 30.844 20.2315 32.307 21.6945C33.77 23.1575 34.501 24.926 34.5 27C34.5 29.075 33.7685 30.844 32.3055 32.307C30.8425 33.77 29.074 34.501 27 34.5Z" fill="#035FA8"/>
</svg>