<svg xmlns="http://www.w3.org/2000/svg" width="52" height="52" viewBox="0 0 52 52" fill="none">
  <path d="M49.1618 39.8015L51.6317 37.6348L49.4651 33.8865L46.3234 34.9482C45.6278 34.3619 44.8362 33.9001 43.9834 33.5832L43.3334 30.3332H39.0001L38.3501 33.5615C37.4973 33.8784 36.7057 34.3402 36.0101 34.9265L32.8684 33.8648L30.7017 37.6132L33.1718 39.7798C32.9984 40.6816 32.9984 41.6081 33.1718 42.5098L30.7017 44.6765L32.8684 48.4248L36.0101 47.3632C36.7056 47.9496 37.4973 48.4113 38.3501 48.7282L39.0001 51.9998H43.3334L43.9834 48.7715C44.8362 48.4546 45.6278 47.9928 46.3234 47.4065L49.4651 48.4682L51.6317 44.7198L49.1618 42.5532C49.3351 41.6441 49.3351 40.7105 49.1618 39.8015ZM41.1667 45.4998C40.3097 45.4998 39.4719 45.2457 38.7593 44.7695C38.0467 44.2934 37.4912 43.6166 37.1633 42.8248C36.8353 42.033 36.7495 41.1617 36.9167 40.3211C37.0839 39.4805 37.4966 38.7084 38.1026 38.1024C38.7086 37.4963 39.4808 37.0836 40.3214 36.9164C41.1619 36.7492 42.0332 36.835 42.825 37.163C43.6169 37.491 44.2936 38.0464 44.7698 38.759C45.2459 39.4716 45.5001 40.3094 45.5001 41.1665C45.4967 42.3147 45.039 43.4149 44.2271 44.2268C43.4152 45.0388 42.315 45.4964 41.1667 45.4998ZM49.8334 23.8332H2.16675V2.1665H49.8334V23.8332ZM6.50008 19.4998H45.5001V6.49984H6.50008V19.4998ZM28.1667 10.8332H8.66675V15.1665H28.1667V10.8332ZM34.6667 10.8332C34.2382 10.8332 33.8193 10.9602 33.463 11.1983C33.1067 11.4364 32.829 11.7748 32.665 12.1707C32.501 12.5666 32.4581 13.0022 32.5417 13.4225C32.6253 13.8428 32.8317 14.2289 33.1347 14.5319C33.4377 14.8349 33.8238 15.0413 34.2441 15.1249C34.6643 15.2085 35.1 15.1656 35.4959 15.0016C35.8918 14.8376 36.2302 14.5599 36.4683 14.2036C36.7063 13.8473 36.8334 13.4284 36.8334 12.9998C36.8334 12.4252 36.6051 11.8741 36.1988 11.4678C35.7925 11.0614 35.2414 10.8332 34.6667 10.8332ZM41.1667 10.8332C40.7382 10.8332 40.3193 10.9602 39.963 11.1983C39.6067 11.4364 39.329 11.7748 39.165 12.1707C39.001 12.5666 38.9581 13.0022 39.0417 13.4225C39.1253 13.8428 39.3317 14.2289 39.6347 14.5319C39.9377 14.8349 40.3238 15.0413 40.7441 15.1249C41.1643 15.2085 41.6 15.1656 41.9959 15.0016C42.3918 14.8376 42.7302 14.5599 42.9683 14.2036C43.2063 13.8473 43.3334 13.4284 43.3334 12.9998C43.3334 12.4252 43.1051 11.8741 42.6988 11.4678C42.2925 11.0614 41.7414 10.8332 41.1667 10.8332Z" fill="#035FA8"/>
  <path d="M26.6371 45.4998H6.50008V32.4998H28.7301C29.9591 30.7439 31.545 29.2672 33.3841 28.1665H2.16675V49.8332H28.7301C27.805 48.51 27.0984 47.047 26.6371 45.4998Z" fill="#035FA8"/>
  <path d="M8.66675 41.1668H26.0001C26.0014 39.6992 26.216 38.2395 26.6371 36.8335H8.66675V41.1668Z" fill="#035FA8"/>
</svg>