<svg xmlns="http://www.w3.org/2000/svg" width="72" height="72" viewBox="0 0 72 72" fill="none">
  <path d="M23.0697 34.4999H33.9927V28.7999H23.0697C22.6674 28.8055 22.2836 28.9702 22.0025 29.2581C21.7213 29.546 21.5657 29.9335 21.5697 30.3359V32.9549C21.5665 33.1549 21.6028 33.3536 21.6766 33.5395C21.7503 33.7255 21.8599 33.895 21.9992 34.0386C22.1386 34.1821 22.3048 34.2967 22.4885 34.3759C22.6722 34.455 22.8697 34.4972 23.0697 34.4999ZM23.0697 24.0899H33.9927V18.3899H23.0697C22.6674 18.3954 22.2836 18.5602 22.0025 18.8481C21.7213 19.136 21.5657 19.5235 21.5697 19.9259V22.5449C21.5665 22.7449 21.6028 22.9436 21.6766 23.1295C21.7503 23.3155 21.8599 23.485 21.9992 23.6286C22.1386 23.7721 22.3048 23.8867 22.4885 23.9659C22.6722 24.045 22.8697 24.0872 23.0697 24.0899ZM52.6257 19.9049C52.6236 19.5103 52.4688 19.1319 52.1937 18.8489C52.0583 18.7051 51.8946 18.5908 51.7128 18.5134C51.5311 18.4359 51.3353 18.397 51.1377 18.3989H40.1997V24.0629H51.1227C51.5251 24.0574 51.9088 23.8926 52.19 23.6047C52.4711 23.3169 52.6267 22.9293 52.6227 22.5269L52.6257 19.9049ZM23.0697 13.6559H51.1287C51.328 13.6559 51.5253 13.6163 51.7091 13.5392C51.8928 13.4621 52.0594 13.3492 52.199 13.2071C52.3387 13.0649 52.4486 12.8964 52.5224 12.7112C52.5962 12.5261 52.6323 12.3282 52.6287 12.1289V9.49791C52.6327 9.09554 52.4771 8.70798 52.196 8.42009C51.9148 8.1322 51.5311 7.96745 51.1287 7.96191H23.0697C22.6681 7.96979 22.2857 8.13527 22.0051 8.42265C21.7244 8.71003 21.5681 9.09624 21.5697 9.49791V12.1199C21.5657 12.5223 21.7213 12.9099 22.0025 13.1977C22.2836 13.4856 22.6674 13.6504 23.0697 13.6559ZM40.1997 28.8149V34.4999H51.1227C51.3221 34.4976 51.519 34.456 51.7023 34.3775C51.8856 34.299 52.0516 34.1852 52.1909 34.0426C52.3302 33.9 52.44 33.7313 52.5141 33.5462C52.5882 33.3611 52.6251 33.1633 52.6227 32.9639V30.3299C52.6207 29.9326 52.466 29.5513 52.1907 29.2649C52.0553 29.1211 51.8916 29.0068 51.7098 28.9294C51.5281 28.8519 51.3323 28.813 51.1347 28.8149H40.1997ZM63.5427 37.4999H61.8147C59.5977 37.4999 59.4627 37.7489 59.2887 38.1329L55.8627 46.5329C54.7197 49.3289 53.5497 52.3319 53.0967 53.8889C52.3303 51.3347 51.4075 48.8299 50.3337 46.3889L46.9047 38.1239C46.6947 37.6349 45.8307 37.4909 43.9677 37.4909H42.0297C40.1277 37.4909 39.7437 37.6649 39.7437 38.0579V63.4499C39.7437 63.9089 40.1277 64.0169 42.0957 64.0169H43.1697C45.1107 64.0169 45.6657 63.9089 45.6657 63.4499V48.4079H45.8007C45.9173 48.8668 46.0687 49.3161 46.2537 49.7519L50.1987 59.1989C50.3697 59.6219 50.5827 59.7989 52.4157 59.7989H53.5857C55.4577 59.7989 55.5927 59.6639 55.7667 59.1989L59.3667 50.1059C59.5952 49.5504 59.7954 48.9837 59.9667 48.4079H60.1017V63.4619C60.1017 63.9209 60.4857 64.0259 62.5197 64.0259H63.5577C65.4567 64.0259 66.0147 63.9209 66.0147 63.4619V38.0789C65.9997 37.6859 65.4537 37.4999 63.5427 37.4999ZM24.2997 37.4999H6.63572C6.11672 37.4999 6.01172 37.4999 6.01172 39.4409V41.1779C6.01172 43.0589 6.15572 43.1939 6.63572 43.1939H12.4977V63.4499C12.4977 63.9119 12.8457 64.0169 14.8497 64.0169H15.8997C17.8677 64.0169 18.4257 63.9119 18.4257 63.4499V43.1999H24.2997C24.7887 43.1999 24.9237 42.9899 24.9237 41.1839V39.4499C24.8997 37.5779 24.8067 37.4999 24.2997 37.4999ZM32.3817 37.4999H31.2777C29.2707 37.4999 28.9257 37.6739 28.9257 38.0669V63.4499C28.9257 63.9089 29.2707 64.0139 31.2777 64.0139H32.3817C34.2807 64.0139 34.8387 63.9089 34.8387 63.4499V38.0789C34.8387 37.6859 34.2807 37.4999 32.3817 37.4999Z" fill="#FFF618" fill-opacity="0.9"/>
</svg>