<svg xmlns="http://www.w3.org/2000/svg" width="72" height="72" viewBox="0 0 72 72" fill="none">
  <path d="M14.58 17.1001V25.9201H4.5V47.2501H20.88V17.1001H14.58ZM14.58 42.3001H10.8V31.0501H14.58V42.3001ZM23.4 25.9201H29.7V47.3401H23.4V25.9201ZM23.4 17.1001H29.7V23.4001H23.4V17.1001ZM32.22 25.9201V47.2501H42.3V49.7701H32.22V54.9001H48.6V25.9201H32.22ZM42.3 42.3001H38.52V31.0501H42.3V42.3001ZM51.12 25.9201V47.2501H61.2V49.7701H51.12V54.9001H67.5V25.9201H51.12ZM61.2 42.3001H57.42V31.0501H61.2V42.3001Z" fill="black" fill-opacity="0.8"/>
</svg>