<svg xmlns="http://www.w3.org/2000/svg" width="72" height="72" viewBox="0 0 72 72" fill="none">
  <path fill-rule="evenodd" clip-rule="evenodd" d="M36 11.2498C30.6523 11.2478 25.4478 12.9779 21.1656 16.1811C16.8834 19.3843 13.7539 23.8883 12.2455 29.0189C10.7372 34.1494 10.9311 39.6305 12.7983 44.6416C14.6656 49.6527 18.1056 53.9243 22.6035 56.8168L26.1585 45.2473C24.3543 43.3277 23.1511 40.9221 22.6973 38.327C22.2435 35.732 22.5589 33.0608 23.6046 30.6428C24.6504 28.2248 26.3807 26.1656 28.5824 24.719C30.7842 23.2724 33.3611 22.5016 35.9955 22.5016C38.6299 22.5016 41.2068 23.2724 43.4086 24.719C45.6103 26.1656 47.3406 28.2248 48.3864 30.6428C49.4321 33.0608 49.7475 35.732 49.2937 38.327C48.8399 40.9221 47.6367 43.3277 45.8325 45.2473L49.3965 56.8123C53.8923 53.919 57.3304 49.6476 59.1962 44.6374C61.0621 39.6272 61.2554 34.1475 59.7473 29.0182C58.2392 23.889 55.1107 19.386 50.8299 16.183C46.5492 12.98 41.3464 11.2493 36 11.2498ZM4.5 35.9998C4.50118 30.3276 6.03392 24.761 8.9364 19.8877C11.8389 15.0144 16.0034 11.0152 20.9902 8.31238C25.977 5.60958 31.6012 4.30345 37.2687 4.53191C42.9363 4.76037 48.437 6.51494 53.1902 9.61036C57.9433 12.7058 61.7724 17.0272 64.2732 22.1183C66.774 27.2094 67.8537 32.8814 67.3983 38.5352C66.943 44.1891 64.9694 49.6151 61.686 54.2404C58.4026 58.8656 53.9312 62.5185 48.744 64.8133C48.3082 65.006 47.8365 65.1042 47.3599 65.1015C46.8834 65.0988 46.4128 64.9952 45.9792 64.7975C45.5456 64.5998 45.1588 64.3126 44.8442 63.9546C44.5296 63.5967 44.2944 63.1762 44.154 62.7208L38.754 45.1663C38.547 44.4959 38.5541 43.7777 38.7743 43.1115C38.9944 42.4453 39.4168 41.8643 39.9825 41.4493C41.1321 40.6092 41.9867 39.4271 42.4239 38.072C42.8611 36.7169 42.8586 35.2583 42.4168 33.9047C41.9749 32.5511 41.1163 31.3719 39.9638 30.5358C38.8113 29.6996 37.4239 29.2493 36 29.2493C34.5761 29.2493 33.1887 29.6996 32.0362 30.5358C30.8837 31.3719 30.0251 32.5511 29.5832 33.9047C29.1414 35.2583 29.1389 36.7169 29.5761 38.072C30.0133 39.4271 30.8679 40.6092 32.0175 41.4493C32.584 41.8637 33.0072 42.4445 33.2282 43.1107C33.4492 43.7769 33.457 44.4955 33.2505 45.1663L27.8505 62.7208C27.7102 63.1768 27.4749 63.5978 27.1599 63.9562C26.845 64.3145 26.4577 64.602 26.0236 64.7998C25.5894 64.9975 25.1183 65.1009 24.6412 65.1033C24.1642 65.1056 23.6921 65.0068 23.256 64.8133C17.6746 62.3435 12.9308 58.3057 9.60116 53.1905C6.27148 48.0754 4.4993 42.1032 4.5 35.9998Z" fill="#DE1111" fill-opacity="0.8"/>
</svg>