<svg xmlns="http://www.w3.org/2000/svg" width="72" height="72" viewBox="0 0 72 72" fill="none">
  <g clip-path="url(#clip0_410_1528)">
    <path d="M71.3417 25.4079L60.0917 14.1579C59.8827 13.9487 59.6346 13.7828 59.3614 13.6696C59.0883 13.5563 58.7955 13.498 58.4998 13.498C58.2041 13.498 57.9113 13.5563 57.6382 13.6696C57.3651 13.7828 57.1169 13.9487 56.9079 14.1579L47.2498 23.8189L37.5917 14.1579C37.3827 13.9487 37.1346 13.7828 36.8614 13.6696C36.5883 13.5563 36.2955 13.498 35.9998 13.498C35.7041 13.498 35.4113 13.5563 35.1382 13.6696C34.8651 13.7828 34.6169 13.9487 34.4079 14.1579L24.7498 23.8189L15.0917 14.1579C14.8827 13.9487 14.6346 13.7828 14.3614 13.6696C14.0883 13.5563 13.7955 13.498 13.4998 13.498C13.2041 13.498 12.9113 13.5563 12.6382 13.6696C12.3651 13.7828 12.1169 13.9487 11.9079 14.1579L0.657942 25.4079C0.448745 25.6169 0.282787 25.8651 0.169557 26.1382C0.0563278 26.4113 -0.00195312 26.7041 -0.00195312 26.9998C-0.00195312 27.2955 0.0563278 27.5883 0.169557 27.8614C0.282787 28.1346 0.448745 28.3827 0.657942 28.5917L11.9079 39.8417C12.1169 40.0509 12.3651 40.2168 12.6382 40.3301C12.9113 40.4433 13.2041 40.5016 13.4998 40.5016C13.7955 40.5016 14.0883 40.4433 14.3614 40.3301C14.6346 40.2168 14.8827 40.0509 15.0917 39.8417L24.7498 30.1808L32.8189 38.2498L23.1579 47.9079C22.9487 48.1169 22.7828 48.3651 22.6696 48.6382C22.5563 48.9113 22.498 49.2041 22.498 49.4998C22.498 49.7955 22.5563 50.0883 22.6696 50.3614C22.7828 50.6346 22.9487 50.8827 23.1579 51.0917L34.4079 62.3417C34.6169 62.5509 34.8651 62.7168 35.1382 62.8301C35.4113 62.9433 35.7041 63.0016 35.9998 63.0016C36.2955 63.0016 36.5883 62.9433 36.8614 62.8301C37.1346 62.7168 37.3827 62.5509 37.5917 62.3417L48.8417 51.0917C49.0509 50.8827 49.2168 50.6346 49.3301 50.3614C49.4433 50.0883 49.5016 49.7955 49.5016 49.4998C49.5016 49.2041 49.4433 48.9113 49.3301 48.6382C49.2168 48.3651 49.0509 48.1169 48.8417 47.9079L39.1808 38.2498L47.2498 30.1808L56.9079 39.8417C57.1169 40.0509 57.3651 40.2168 57.6382 40.3301C57.9113 40.4433 58.2041 40.5016 58.4998 40.5016C58.7955 40.5016 59.0883 40.4433 59.3614 40.3301C59.6346 40.2168 59.8827 40.0509 60.0917 39.8417L71.3417 28.5917C71.5509 28.3827 71.7169 28.1346 71.8301 27.8614C71.9433 27.5883 72.0016 27.2955 72.0016 26.9998C72.0016 26.7041 71.9433 26.4113 71.8301 26.1382C71.7169 25.8651 71.5509 25.6169 71.3417 25.4079ZM13.4998 35.0689L5.43075 26.9998L13.4998 18.9308L21.5689 26.9998L13.4998 35.0689ZM35.9998 57.5689L27.9308 49.4998L35.9998 41.4308L44.0689 49.4998L35.9998 57.5689ZM35.9998 35.0689L27.9308 26.9998L35.9998 18.9308L44.0689 26.9998L35.9998 35.0689ZM58.4998 35.0689L50.4308 26.9998L58.4998 18.9308L66.5689 26.9998L58.4998 35.0689Z" fill="#035FA8"/>
  </g>
  <defs>
    <clipPath id="clip0_410_1528">
      <rect width="72" height="72" fill="white"/>
    </clipPath>
  </defs>
</svg>