<svg xmlns="http://www.w3.org/2000/svg" width="72" height="72" viewBox="0 0 72 72" fill="none">
  <path fill-rule="evenodd" clip-rule="evenodd" d="M68.1609 18.5625C68.6616 16.9763 68.1609 15.8231 65.9461 15.8231H58.5816C56.7239 15.8231 55.8661 16.8328 55.3655 17.9128C55.3655 17.9128 51.577 27.1378 46.2867 33.1186C44.5711 34.8483 43.785 35.4248 42.8555 35.4248C42.3548 35.4248 41.7108 34.8483 41.7108 33.2634V18.488C41.7108 16.6148 41.1398 15.75 39.5663 15.75H27.9844C26.8397 15.75 26.1253 16.6148 26.1253 17.4797C26.1253 19.2811 28.7705 19.7142 29.0559 24.7584V35.7188C29.0559 38.0967 28.6341 38.5312 27.6975 38.5312C25.1958 38.5312 19.1194 29.2345 15.4744 18.6412C14.7656 16.5431 14.0456 15.75 12.1866 15.75H4.75172C2.60719 15.75 2.25 16.7583 2.25 17.8397C2.25 19.7859 4.75172 29.5861 13.9022 42.5573C19.9786 51.4167 28.6284 56.1783 36.4205 56.1783C41.1398 56.1783 41.7108 55.0969 41.7108 53.2955V46.5933C41.7108 44.4319 42.1397 44.0719 43.6416 44.0719C44.7131 44.0719 46.6439 44.647 51.0047 48.8995C56.0081 53.9438 56.8659 56.25 59.6545 56.25H67.0177C69.1622 56.25 70.1634 55.1686 69.5911 53.0789C68.9484 50.9892 66.517 47.963 63.3713 44.3602C61.6556 42.3436 59.0822 40.1091 58.2961 39.0277C57.2245 37.5863 57.51 37.0097 58.2961 35.7131C58.2244 35.7131 67.2328 22.8853 68.1609 18.5569" fill="#17598C"/>
</svg>