<svg xmlns="http://www.w3.org/2000/svg" width="72" height="72" viewBox="0 0 72 72" fill="none">
  <path d="M70.8751 47.2501V56.2501C70.8751 57.1452 70.5195 58.0037 69.8866 58.6366C69.2537 59.2696 68.3952 59.6251 67.5001 59.6251C66.605 59.6251 65.7466 59.2696 65.1136 58.6366C64.4807 58.0037 64.1251 57.1452 64.1251 56.2501V55.3811C60.6264 58.6155 50.6954 66.3751 36.0001 66.3751C17.8314 66.3751 6.94699 54.512 6.49137 54.0001C6.16675 53.6759 5.91166 53.2889 5.74166 52.8627C5.57167 52.4366 5.49036 51.9802 5.50268 51.5216C5.51501 51.063 5.62072 50.6116 5.81336 50.1952C6.00599 49.7788 6.28151 49.4061 6.62307 49.0997C6.96463 48.7934 7.36507 48.5599 7.79991 48.4136C8.23474 48.2672 8.69486 48.2111 9.15213 48.2485C9.60941 48.286 10.0542 48.4163 10.4594 48.6315C10.8647 48.8467 11.2217 49.1423 11.5089 49.5001C11.5932 49.593 20.9251 59.6251 36.0001 59.6251C47.9954 59.6251 56.3457 53.2745 59.3073 50.6251H58.5001C57.605 50.6251 56.7466 50.2696 56.1136 49.6366C55.4807 49.0037 55.1251 48.1452 55.1251 47.2501C55.1251 46.355 55.4807 45.4966 56.1136 44.8637C56.7466 44.2307 57.605 43.8751 58.5001 43.8751H67.5001C68.3952 43.8751 69.2537 44.2307 69.8866 44.8637C70.5195 45.4966 70.8751 46.355 70.8751 47.2501ZM43.8751 24.2101V23.6251C43.8757 21.6843 43.2489 19.7953 42.0882 18.2399C40.9276 16.6844 39.2951 15.5458 37.4345 14.9939C35.5738 14.442 33.5845 14.5063 31.7634 15.1773C29.9423 15.8484 28.3869 17.0901 27.3292 18.7173C26.8406 19.4674 26.0741 19.9926 25.1983 20.1774C24.3224 20.3623 23.409 20.1917 22.659 19.7031C21.909 19.2145 21.3838 18.448 21.1989 17.5722C21.014 16.6964 21.1847 15.783 21.6732 15.033C23.5251 12.1866 26.2472 10.015 29.4338 8.84187C32.6204 7.66872 36.1008 7.55686 39.3561 8.52297C42.6115 9.48908 45.4675 11.4814 47.4982 14.2029C49.529 16.9245 50.6258 20.2294 50.6251 23.6251V49.5001C50.6195 50.3471 50.2956 51.1611 49.7177 51.7803C49.1398 52.3996 48.3502 52.7789 47.5056 52.843C46.661 52.9071 45.8232 52.6513 45.1585 52.1263C44.4937 51.6014 44.0507 50.8457 43.9173 50.0092C41.5599 51.6664 38.793 52.6452 35.9179 52.8388C33.0428 53.0325 30.1697 52.4337 27.6113 51.1076C25.053 49.7815 22.9075 47.7789 21.4084 45.3179C19.9093 42.8569 19.1141 40.0318 19.1094 37.1502C19.1047 34.2686 19.8906 31.4409 21.3817 28.975C22.8727 26.5091 25.0116 24.4996 27.5656 23.1651C30.1196 21.8306 32.9908 21.2224 35.8665 21.4067C38.7423 21.5909 41.5123 22.5606 43.8751 24.2101ZM43.8751 37.1251C43.8751 35.3451 43.3473 33.605 42.3583 32.125C41.3694 30.645 39.9638 29.4914 38.3193 28.8102C36.6747 28.129 34.8651 27.9508 33.1193 28.2981C31.3735 28.6453 29.7698 29.5025 28.5112 30.7612C27.2525 32.0198 26.3953 33.6235 26.048 35.3693C25.7008 37.1152 25.879 38.9248 26.5602 40.5693C27.2414 42.2138 28.3949 43.6194 29.875 44.6084C31.355 45.5973 33.0951 46.1251 34.8751 46.1251C37.2621 46.1251 39.5513 45.1769 41.2391 43.4891C42.9269 41.8013 43.8751 39.5121 43.8751 37.1251Z" fill="#3BB9AA" fill-opacity="0.91"/>
</svg>