<svg xmlns="http://www.w3.org/2000/svg" width="52" height="52" viewBox="0 0 52 52" fill="none">
  <path d="M37.375 11.375H43.875V17.875H37.375V11.375ZM37.375 21.125H43.875V27.625H37.375V21.125ZM27.625 11.375H34.125V17.875H27.625V11.375ZM27.625 21.125H34.125V27.625H27.625V21.125Z" fill="#035FA8"/>
  <path d="M23.5625 42.25C24.9087 42.25 26 41.1587 26 39.8125C26 38.4663 24.9087 37.375 23.5625 37.375C22.2163 37.375 21.125 38.4663 21.125 39.8125C21.125 41.1587 22.2163 42.25 23.5625 42.25Z" fill="#035FA8"/>
  <path d="M34.125 48.75H13C12.1383 48.7491 11.3122 48.4065 10.7029 47.7971C10.0935 47.1878 9.75086 46.3617 9.75 45.5V6.5C9.75086 5.63831 10.0935 4.81216 10.7029 4.20285C11.3122 3.59355 12.1383 3.25086 13 3.25H34.125V6.5H13V45.5H34.125V32.5H37.375V45.5C37.3741 46.3617 37.0315 47.1878 36.4221 47.7971C35.8128 48.4065 34.9867 48.7491 34.125 48.75Z" fill="#035FA8"/>
</svg>