<svg xmlns="http://www.w3.org/2000/svg" width="52" height="52" viewBox="0 0 52 52" fill="none">
  <path d="M35.4466 30.3333C35.6199 28.9033 35.7499 27.4733 35.7499 25.9999C35.7499 24.5266 35.6199 23.0966 35.4466 21.6666H42.7699C43.1166 23.0533 43.3333 24.5049 43.3333 25.9999C43.3333 27.4949 43.1166 28.9466 42.7699 30.3333M31.6116 42.3799C32.9116 39.9749 33.9083 37.3749 34.6016 34.6666H40.9933C38.8941 38.2812 35.5638 41.0192 31.6116 42.3799ZM31.0699 30.3333H20.9299C20.7133 28.9033 20.5833 27.4733 20.5833 25.9999C20.5833 24.5266 20.7133 23.0749 20.9299 21.6666H31.0699C31.2649 23.0749 31.4166 24.5266 31.4166 25.9999C31.4166 27.4733 31.2649 28.9033 31.0699 30.3333ZM25.9999 43.2466C24.2016 40.6466 22.7499 37.7649 21.8616 34.6666H30.1383C29.2499 37.7649 27.7983 40.6466 25.9999 43.2466ZM17.3333 17.3333H11.0066C13.0841 13.7089 16.412 10.9665 20.3666 9.61992C19.0666 12.0249 18.0916 14.6249 17.3333 17.3333ZM11.0066 34.6666H17.3333C18.0916 37.3749 19.0666 39.9749 20.3666 42.3799C16.4203 41.0185 13.0971 38.28 11.0066 34.6666ZM9.22992 30.3333C8.88325 28.9466 8.66659 27.4949 8.66659 25.9999C8.66659 24.5049 8.88325 23.0533 9.22992 21.6666H16.5533C16.3799 23.0966 16.2499 24.5266 16.2499 25.9999C16.2499 27.4733 16.3799 28.9033 16.5533 30.3333M25.9999 8.73159C27.7983 11.3316 29.2499 14.2349 30.1383 17.3333H21.8616C22.7499 14.2349 24.2016 11.3316 25.9999 8.73159ZM40.9933 17.3333H34.6016C33.9235 14.6497 32.9193 12.0594 31.6116 9.61992C35.5983 10.9849 38.9133 13.7366 40.9933 17.3333ZM25.9999 4.33325C14.0183 4.33325 4.33325 14.0833 4.33325 25.9999C4.33325 31.7463 6.61598 37.2573 10.6793 41.3206C12.6912 43.3325 15.0797 44.9285 17.7084 46.0173C20.3372 47.1062 23.1546 47.6666 25.9999 47.6666C31.7463 47.6666 37.2573 45.3839 41.3206 41.3206C45.3839 37.2573 47.6666 31.7463 47.6666 25.9999C47.6666 23.1546 47.1062 20.3372 46.0173 17.7084C44.9285 15.0797 43.3325 12.6912 41.3206 10.6793C39.3086 8.66734 36.9201 7.07138 34.2914 5.98253C31.6627 4.89368 28.8452 4.33325 25.9999 4.33325Z" fill="#035FA8"/>
</svg>