<svg xmlns="http://www.w3.org/2000/svg" width="39" height="39" viewBox="0 0 39 39" fill="none">
  <path d="M34.0031 10.3349C28.9087 2.43744 18.4762 0.0974445 10.4081 4.99682C2.53498 9.89619 -2.47955e-05 20.5724 5.09435 28.4456L5.50872 29.0793L3.80247 35.4656L10.1887 33.7593L10.8225 34.1737C13.5768 35.6606 16.575 36.5137 19.5487 36.5137C22.7418 36.5137 25.935 35.6606 28.6893 33.9543C36.5625 28.8356 38.9025 18.3787 34.0031 10.2862V10.3349ZM29.5425 26.7637C28.6893 28.0312 27.6168 28.8843 26.13 29.1037C25.2768 29.1037 24.2043 29.5181 19.9631 27.8362C16.3556 26.1299 13.3575 23.3512 11.2368 20.1581C9.96935 18.6712 9.31122 16.7456 9.11622 14.8199C9.11622 13.1137 9.74997 11.6268 10.8225 10.5543C11.2368 10.1399 11.6756 9.92057 12.09 9.92057H13.1625C13.5768 9.92057 14.0156 9.92057 14.235 10.7737C14.6493 11.8462 15.7218 14.4056 15.7218 14.6249C15.9412 14.8443 15.8437 16.4774 14.8687 17.4037C14.3325 18.0131 14.235 18.0374 14.4543 18.4762C15.3075 19.7437 16.38 21.0356 17.4281 22.1081C18.6956 23.1806 19.9875 24.0337 21.4743 24.6674C21.8887 24.8868 22.3275 24.8868 22.5468 24.4481C22.7662 24.0337 23.8143 22.9612 24.2531 22.5224C24.6675 22.1081 24.8868 22.1081 25.3256 22.3031L28.7381 24.0093C29.1525 24.2287 29.5912 24.4237 29.8106 24.6431C30.03 25.2768 30.03 26.1299 29.5912 26.7637H29.5425Z" fill="#EBEBEB"/>
</svg>